<svg id="logo" xmlns="http://www.w3.org/2000/svg" viewBox="0 0 845.06 243"><defs><style>.cls-1{fill:#fff;}.cls-2{opacity:0.8;}</style></defs><title>apollo-mattos-logo-v2</title><g id="symbol"><polygon class="cls-1" points="135 135 90 90 85.5 85.5 63 63 0 0 0 90 0 171 0 243 27 243 63 243 63 198 63 153 85.5 175.5 90 180 153 243 243 243 135 135"/><polygon class="cls-1" points="180 0 99 81 144 126 180 90 180 162.16 243 225.16 243 27 243 18 243 0 180 0"/></g><g id="apollo-txt" class="cls-2"><path class="cls-1" d="M313.9,109,352,23.56h19.53L409.71,109H389L357.72,33.57h7.81L334.16,109Zm19-18.31,5.25-15h43.94l5.37,15Z"/><path class="cls-1" d="M418.62,109V23.56h37q11.47,0,19.77,3.73A28.9,28.9,0,0,1,488.19,38a29.8,29.8,0,0,1,4.51,16.6A29.59,29.59,0,0,1,488.19,71a28.9,28.9,0,0,1-12.82,10.68q-8.3,3.72-19.77,3.72h-26l8.79-8.91V109Zm19.77-30.27-8.79-9.4h24.9q9.15,0,13.67-3.9c3-2.6,4.52-6.23,4.52-10.86s-1.51-8.38-4.52-11-7.57-3.9-13.67-3.9H429.6l8.79-9.4Z"/><path class="cls-1" d="M549.46,110.46a51.91,51.91,0,0,1-18.74-3.29,44.4,44.4,0,0,1-14.89-9.28,42.24,42.24,0,0,1-9.76-14,43.85,43.85,0,0,1-3.48-17.58,43.84,43.84,0,0,1,3.48-17.57,42,42,0,0,1,9.82-14,45.18,45.18,0,0,1,14.89-9.27,54,54,0,0,1,37.17,0,44.6,44.6,0,0,1,14.76,9.27,44.59,44.59,0,0,1,9.83,49.25,42.2,42.2,0,0,1-9.83,14A45.13,45.13,0,0,1,568,107.17,50.59,50.59,0,0,1,549.46,110.46Zm-.13-16.84a27.88,27.88,0,0,0,10.56-2,25.52,25.52,0,0,0,14.16-14.28,29.58,29.58,0,0,0,2-11.11,29.49,29.49,0,0,0-2-11.1,26.06,26.06,0,0,0-5.62-8.67A24.44,24.44,0,0,0,560,40.9a28.34,28.34,0,0,0-10.62-2,27.86,27.86,0,0,0-10.55,2,25.36,25.36,0,0,0-14.16,14.28,29.49,29.49,0,0,0-2,11.1,29.71,29.71,0,0,0,2,11,25.85,25.85,0,0,0,5.61,8.72,24.37,24.37,0,0,0,8.49,5.62A28.32,28.32,0,0,0,549.33,93.62Z"/><path class="cls-1" d="M611,109V23.56h19.77V92.89h42.84V109Z"/><path class="cls-1" d="M684.69,109V23.56h19.77V92.89H747.3V109Z"/><path class="cls-1" d="M798.44,110.46a51.91,51.91,0,0,1-18.74-3.29,44.3,44.3,0,0,1-14.89-9.28,42.24,42.24,0,0,1-9.76-14,43.85,43.85,0,0,1-3.48-17.58,43.84,43.84,0,0,1,3.48-17.57,42,42,0,0,1,9.82-14,45.18,45.18,0,0,1,14.89-9.27,54,54,0,0,1,37.17,0,44.6,44.6,0,0,1,14.76,9.27,44.59,44.59,0,0,1,9.83,49.25,42.2,42.2,0,0,1-9.83,14,45.13,45.13,0,0,1-14.76,9.22A50.59,50.59,0,0,1,798.44,110.46Zm-.13-16.84a27.88,27.88,0,0,0,10.56-2,25.19,25.19,0,0,0,8.48-5.62A25.56,25.56,0,0,0,823,77.39a29.58,29.58,0,0,0,2-11.11,29.49,29.49,0,0,0-2-11.1,26.06,26.06,0,0,0-5.62-8.67,24.44,24.44,0,0,0-8.48-5.61,28.34,28.34,0,0,0-10.62-2,27.86,27.86,0,0,0-10.55,2,25.25,25.25,0,0,0-8.49,5.61,25.58,25.58,0,0,0-5.67,8.67,31.37,31.37,0,0,0,0,22.15,25.85,25.85,0,0,0,5.61,8.72,24.37,24.37,0,0,0,8.49,5.62A28.32,28.32,0,0,0,798.31,93.62Z"/></g><g id="mattos-txt" class="cls-2"><path class="cls-1" d="M317.47,225V139.56h13.06l37.35,62.37H361l36.74-62.37h13.06L411,225H396l-.12-61.88H399l-31.24,52.12h-7.08L329,163.12h3.66V225Z"/><path class="cls-1" d="M424.39,225l38.44-85.44h15.63L517,225h-16.6l-33.07-77h6.35l-33,77Zm17.69-19.77,4.28-12.45h46.13l4.27,12.45Z"/><polygon class="cls-1" points="592.2 139.56 515.07 139.56 515.07 152.99 543.39 152.99 543.39 225 559.25 225 559.25 152.99 592.2 152.99 620.52 152.99 620.52 225 636.39 225 636.39 152.99 664.7 152.99 664.7 139.56 592.2 139.56"/><path class="cls-1" d="M717.92,226.22a50,50,0,0,1-18.43-3.3,44.34,44.34,0,0,1-14.65-9.21,41.39,41.39,0,0,1-9.64-13.91,46.56,46.56,0,0,1,0-35,41.43,41.43,0,0,1,9.64-13.92,44.67,44.67,0,0,1,14.65-9.21,52.59,52.59,0,0,1,36.67,0,44.92,44.92,0,0,1,14.59,9.21,41.57,41.57,0,0,1,9.64,13.92,44.07,44.07,0,0,1,3.42,17.51,44.52,44.52,0,0,1-3.42,17.58,40.65,40.65,0,0,1-9.64,13.91,45.11,45.11,0,0,1-14.59,9.15A49.22,49.22,0,0,1,717.92,226.22Zm-.13-13.91a32,32,0,0,0,12-2.2,27.47,27.47,0,0,0,9.52-6.29,29.48,29.48,0,0,0,6.29-9.52,33.09,33.09,0,0,0,0-24,29.7,29.7,0,0,0-6.29-9.52,27.45,27.45,0,0,0-9.52-6.28,31.77,31.77,0,0,0-12-2.2,31.35,31.35,0,0,0-11.9,2.2,28.41,28.41,0,0,0-9.52,6.28,29.19,29.19,0,0,0-6.34,9.52,32.94,32.94,0,0,0,0,24,29.4,29.4,0,0,0,6.28,9.58,27.66,27.66,0,0,0,9.52,6.29A32,32,0,0,0,717.79,212.31Z"/><path class="cls-1" d="M809.57,226.22a63.76,63.76,0,0,1-19.16-2.87q-9.15-2.86-14.52-7.38l5.49-12.33a44.4,44.4,0,0,0,12.69,6.71,46,46,0,0,0,15.5,2.69,33.26,33.26,0,0,0,10.87-1.47,12.92,12.92,0,0,0,6.1-4,9,9,0,0,0,2-5.68,7.83,7.83,0,0,0-2.81-6.28,20.73,20.73,0,0,0-7.26-3.79q-4.45-1.4-9.88-2.62t-10.87-2.87a45.32,45.32,0,0,1-9.88-4.27,21.38,21.38,0,0,1-7.26-7q-2.82-4.4-2.81-11.23a23.11,23.11,0,0,1,3.72-12.75,25.64,25.64,0,0,1,11.35-9.28q7.63-3.48,19.35-3.48a60.88,60.88,0,0,1,15.25,2,44,44,0,0,1,13.18,5.61l-5,12.33a47,47,0,0,0-11.84-5.07A44.83,44.83,0,0,0,812,151.53a30.24,30.24,0,0,0-10.68,1.58,13.15,13.15,0,0,0-6,4.15,9.62,9.62,0,0,0-1.89,5.86,7.93,7.93,0,0,0,2.75,6.29,19.55,19.55,0,0,0,7.2,3.72q4.46,1.34,10,2.62t10.92,2.87a45.2,45.2,0,0,1,9.89,4.15,20.34,20.34,0,0,1,7.2,7,20.62,20.62,0,0,1,2.74,11.1,23,23,0,0,1-3.72,12.64q-3.72,5.79-11.41,9.27T809.57,226.22Z"/></g></svg>